# xmcd
#
# Track frame offsets: 
#        150
#        14804
#        32294
#        45091
#        61973
#        78601
#        93797
#        112350
#        129418
#        143552
#        162956
#        176447
#        197536
#        213304
#        231000
#        253509
#
# Disc length: 3621 seconds
#
# Revision: 0
# Processed by: cddbd v1.5.1PL2 Copyright (c) Steve Scherf et al.
# Submitted via: ExactAudioCopy v0.95b4
#
DISCID=cb0e2310
DTITLE=Various Artist - Direito de Viver 5 - Ao Vivo
DYEAR=2005
DGENRE=Sertanejo
TTITLE0=Rionegro and Solimões - Barretos a Terra do Peão
TTITLE1=Cézar and Paulinho - Guia-me
TTITLE2=Sérgio Reis - Nuvem Branquinha
TTITLE3=Juliano Cezar - Bem aos Olhos da Lua
TTITLE4=Bruno and Marrone - Foi Engano
TTITLE5=Gian and Giovani - A Próxima Vítima
TTITLE6=Royce do Cavaco - Volta por Cima
TTITLE7=KLB - Não Olhe Assim
TTITLE8=Edson and Hudson - Galera Coração
TTITLE9=Rick and Renner - A Cura
TTITLE10=Pedro and Thiago - Sempre seu Homem
TTITLE11=Leonardo - Tentei te Esquecer
TTITLE12=Alexandre Pires - Coisa do Destino
TTITLE13=Chitãozinho and Xororó - Causa Perdida
TTITLE14=Fábio Jr. - Alma Gêmea
TTITLE15=Zezé di Camargo and Luciano - Fera Mansa
EXTD=
EXTT0=
EXTT1=
EXTT2=
EXTT3=
EXTT4=
EXTT5=
EXTT6=
EXTT7=
EXTT8=
EXTT9=
EXTT10=
EXTT11=
EXTT12=
EXTT13=
EXTT14=
EXTT15=
PLAYORDER=
